<?xml version="1.0" standalone="no"?>
<!DOCTYPE svg PUBLIC "-//W3C//DTD SVG 20010904//EN"
 "http://www.w3.org/TR/2001/REC-SVG-20010904/DTD/svg10.dtd">
<svg version="1.0" xmlns="http://www.w3.org/2000/svg"
 width="16.000000pt" height="16.000000pt" viewBox="0 0 16.000000 16.000000"
 preserveAspectRatio="xMidYMid meet">
<metadata>
Created by potrace 1.11, written by Peter Selinger 2001-2013
</metadata>
<g transform="translate(0.000000,16.000000) scale(0.002632,-0.002632)"
fill="#000000" stroke="none">
<path d="M2192 5622 c-48 -20 -67 -35 -102 -81 -45 -59 -48 -89 -49 -437 0
-181 0 -343 -1 -361 l0 -32 -848 1 c-844 0 -848 0 -912 -22 -70 -23 -145 -73
-176 -116 -10 -14 -24 -32 -30 -38 -6 -7 -19 -26 -28 -43 -43 -85 -43 -56 -41
-1928 l1 -1780 22 -59 c38 -104 105 -176 212 -229 l65 -32 2711 -3 c2305 -2
2718 0 2757 12 26 8 47 11 47 8 0 -4 4 -2 8 3 4 6 24 19 44 30 70 37 168 147
168 190 0 8 4 15 8 15 5 0 9 6 9 13 0 6 5 30 10 52 10 47 9 3562 -2 3615 -27
136 -150 261 -294 300 -33 9 -273 12 -903 12 -704 0 -860 2 -864 13 -9 22 -9
195 -1 195 5 0 5 5 2 10 -5 9 -9 287 -5 315 1 6 1 26 0 47 -1 20 -3 67 -4 105
-4 83 -29 137 -85 185 -22 19 -57 40 -78 46 -27 8 -257 11 -818 11 -717 0
-783 -1 -823 -17z m1446 -308 c44 -31 46 -46 48 -319 0 -143 -1 -265 -3 -271
-6 -17 -1320 -17 -1326 -1 -2 7 -3 133 -3 280 l1 269 33 29 32 29 598 0 c524
0 600 -2 620 -16z m1672 -835 c0 -3 20 -3 44 1 24 3 53 3 64 -1 12 -4 33 -5
49 0 38 10 63 3 64 -17 1 -9 1 -77 2 -149 0 -73 3 -133 6 -134 3 -1 71 -2 151
-3 l145 -1 0 -160 0 -160 -150 0 -150 0 -2 -140 c-1 -77 -2 -145 -2 -152 -1
-8 -44 -11 -158 -10 l-158 2 -1 140 c-1 77 -2 145 -3 151 -1 7 -52 10 -151 10
l-150 -1 2 160 3 160 140 0 c77 0 145 3 150 7 6 4 10 63 9 148 0 103 3 143 12
148 15 8 84 9 84 1z m-3280 -433 c14 -3 36 -7 50 -10 14 -4 35 -8 48 -10 83
-16 258 -88 305 -126 111 -89 143 -119 184 -175 46 -63 103 -159 103 -176 0
-4 5 -20 12 -36 31 -77 45 -171 43 -294 -4 -214 -78 -391 -265 -634 -100 -130
-128 -162 -359 -404 -80 -85 -168 -177 -195 -205 -26 -28 -87 -91 -135 -140
-98 -102 -133 -145 -125 -157 3 -5 256 -9 562 -9 l557 0 0 -242 0 -243 -910
-1 c-500 0 -915 1 -920 3 -7 2 -11 74 -10 204 l0 200 37 42 c20 23 58 65 85
93 26 28 95 102 153 164 58 62 121 129 140 150 19 21 82 88 140 151 58 62 125
134 150 160 25 26 83 89 130 140 47 51 96 105 110 120 52 56 85 95 147 173 70
89 71 91 92 127 48 79 72 131 84 179 18 70 13 192 -11 254 -21 54 -95 146
-118 146 -7 0 -14 4 -14 9 0 9 -3 10 -90 36 -156 45 -360 -3 -461 -107 -64
-66 -109 -176 -109 -266 l0 -27 -243 0 c-156 -1 -245 3 -249 10 -4 5 -5 30 -3
55 3 25 7 65 9 90 17 176 126 396 260 524 168 158 429 248 701 239 50 -2 101
-5 115 -7z m2676 2 c3 -4 7 -426 7 -938 0 -511 2 -930 6 -931 3 0 71 -2 151
-2 l145 -2 1 -247 c1 -245 1 -248 -20 -249 -12 0 -80 -1 -151 0 l-131 0 -1
-229 c-1 -126 -4 -233 -6 -237 -6 -9 -465 -9 -474 0 -3 4 -6 109 -5 235 l0
229 -616 1 c-340 1 -620 1 -624 1 -4 1 -7 120 -8 266 l0 266 40 62 c22 34 45
69 50 77 100 148 220 333 220 339 0 5 3 11 8 13 4 2 23 28 42 58 19 30 38 60
43 65 5 6 75 111 156 235 81 124 214 326 296 450 81 124 186 284 233 355 48
72 96 144 109 160 l22 31 250 -1 c137 0 253 -4 257 -7z"/>
<path d="M4210 3271 c0 -5 -6 -16 -12 -23 -7 -8 -17 -22 -23 -31 -15 -26 -369
-551 -375 -557 -3 -3 -34 -50 -70 -104 -36 -55 -70 -104 -76 -110 -6 -6 -13
-16 -15 -21 -6 -14 -122 -189 -130 -195 -13 -10 -29 -49 -22 -52 7 -3 694 -2
730 1 14 1 16 1101 2 1101 -5 0 -9 -4 -9 -9z"/>
</g>
</svg>
